<svg xmlns="http://www.w3.org/2000/svg" viewBox="0 0 194.21 150.07"><defs><style>.cls-1{fill:#00c3ff;}.cls-2{fill:#ffdc64;}.cls-3{fill:#d29b6e;}.cls-4{fill:#f0c087;}.cls-5{fill:#694b4b;}</style></defs><g id="Layer_2" data-name="Layer 2"><g id="Layer_1-2" data-name="Layer 1"><path class="cls-1" d="M194.21,0H0V150.07H185.38a8.83,8.83,0,0,0,8.83-8.83V0Z"/><path class="cls-2" d="M123.59,110.34h-53A17.66,17.66,0,0,0,53,128v22.07h88.27V128A17.66,17.66,0,0,0,123.59,110.34Z"/><path class="cls-3" d="M97.1,123.59h0a13.24,13.24,0,0,1-13.24-13.24V97.1h26.49v13.25A13.25,13.25,0,0,1,97.1,123.59Z"/><path class="cls-4" d="M98.62,105.93h-3a17.65,17.65,0,0,1-12.48-5.17l-7.32-7.31A17.66,17.66,0,0,1,70.62,81V53A17.66,17.66,0,0,1,88.28,35.31h17.65A17.66,17.66,0,0,1,123.59,53V81a17.66,17.66,0,0,1-5.17,12.49l-7.32,7.31A17.65,17.65,0,0,1,98.62,105.93Z"/><path class="cls-5" d="M105.93,35.31H88.28A17.65,17.65,0,0,0,70.62,53v8.83s26.48,0,53-8.83h0A17.66,17.66,0,0,0,105.93,35.31Z"/></g></g></svg>