<svg xmlns="http://www.w3.org/2000/svg" viewBox="0 0 264.83 300.14"><defs><style>.cls-1{fill:#ffdc64;}.cls-2{fill:#d29b6e;}.cls-3{fill:#959cb5;}.cls-4{fill:#694b4b;}.cls-5{fill:#5a4146;}.cls-6{fill:#f0c087;}.cls-7{fill:#e6af78;}</style></defs><g id="Layer_2" data-name="Layer 2"><g id="Layer_1-2" data-name="Layer 1"><path class="cls-1" d="M264.83,300.14H8.83A8.83,8.83,0,0,1,0,291.31V8.83A8.83,8.83,0,0,1,8.83,0h256Z"/><path class="cls-2" d="M211.86,300.14V277.55a17.65,17.65,0,0,0-12.07-16.74L171,251.2a17.65,17.65,0,0,1-12.07-16.75V211.86h-53v22.59A17.65,17.65,0,0,1,93.86,251.2L65,260.81A17.66,17.66,0,0,0,53,277.55v22.59Z"/><path class="cls-3" d="M199.79,260.8,171,251.2a17.57,17.57,0,0,1-4.73-2.46,43.6,43.6,0,0,1-67.65,0,17.57,17.57,0,0,1-4.73,2.46L65,260.8A17.66,17.66,0,0,0,53,277.55v22.59H211.86V277.55A17.66,17.66,0,0,0,199.79,260.8Z"/><ellipse class="cls-4" cx="132.42" cy="75.04" rx="35.31" ry="30.9"/><ellipse class="cls-4" cx="132.42" cy="136.83" rx="70.62" ry="66.21"/><path class="cls-5" d="M149.48,72.65a74.82,74.82,0,0,0-17.07-2c-39,0-70.62,29.64-70.62,66.21,0,31.4,23.34,57.63,54.62,64.43v-53.4C116.42,109.62,134.83,85.69,149.48,72.65Z"/><path class="cls-6" d="M176.93,207.26l-28.72,14.36a35.33,35.33,0,0,1-31.59,0L87.9,207.26a17.64,17.64,0,0,1-9.62-13.6l-5.37-42.89a8.83,8.83,0,0,1,8.2-9.91c16.45-1.07,50.76-5.2,71.92-21a8.71,8.71,0,0,1,11.59,1.05L189.17,147a8.87,8.87,0,0,1,2.32,7.13l-4.94,39.49A17.64,17.64,0,0,1,176.93,207.26Z"/><path class="cls-7" d="M189.17,147l-24.55-26.17a8.65,8.65,0,0,0-2.8-2,7.92,7.92,0,0,0-1.06-.29,8.56,8.56,0,0,0-2.17-.45,7.93,7.93,0,0,0-1.88.17c-.32.06-.65.06-1,.15a8.73,8.73,0,0,0-2.72,1.34c-21.19,15.86-55.59,20-72,21.05a8.71,8.71,0,0,0-8.1,9.9l5.36,42.89a17.64,17.64,0,0,0,9.62,13.6l28.73,14.36a35,35,0,0,0,13.58,3.47l-10.79-21.56a44.21,44.21,0,0,1-4.66-19.74V161.05a8.88,8.88,0,0,1,6.84-8.59c12.09-3,24.52-7.45,35.32-14l19.37,20.66c2.86,3,6.91,6.53,13.81,6.2l1.39-11.15A8.87,8.87,0,0,0,189.17,147Z"/></g></g></svg>