<svg xmlns="http://www.w3.org/2000/svg" viewBox="0 0 383.9 383.9"><defs><style>.cls-1{fill:#0d0335;}.cls-2{fill:#e8265d;}</style></defs><g id="Layer_2" data-name="Layer 2"><g id="Layer_1-2" data-name="Layer 1"><path class="cls-1" d="M383.9,54.22V329.67a54.22,54.22,0,0,1-54.23,54.23H54.22A54.19,54.19,0,0,1,0,329.67V54.22A54.22,54.22,0,0,1,54.22,0H329.67A54.25,54.25,0,0,1,383.9,54.22Z"/><path class="cls-2" d="M221.58,110.35H163.71a7.43,7.43,0,0,0-7.44,7.44,7.39,7.39,0,0,0,7.44,7.44H203.3l0,0-3.41,14.88H126A7.44,7.44,0,0,0,126,155h70.47L193,170H156.27A7.45,7.45,0,0,0,151,182.66a7.53,7.53,0,0,0,5.27,2.17h33.36l-3.43,14.95H102.27a7.45,7.45,0,0,0-7.44,7.44,7.38,7.38,0,0,0,7.44,7.44h80.52l-3.42,14.92H144.51a7.44,7.44,0,0,0,0,14.88H176l-3.42,15h-54a7.44,7.44,0,0,0,0,14.88H264.92c8.24,0,16.41-6.68,18.3-14.91H187.41Z"/><path class="cls-2" d="M282.74,242.45a11.69,11.69,0,0,0-9.52-4.37H213.59l25.87-112.81c1.89-8.23-3.26-14.92-11.46-14.92L195.29,253h89.39A12.49,12.49,0,0,0,282.74,242.45Z"/></g></g></svg>