<?xml version="1.0" standalone="no"?>
<!DOCTYPE svg PUBLIC "-//W3C//DTD SVG 20010904//EN"
 "http://www.w3.org/TR/2001/REC-SVG-20010904/DTD/svg10.dtd">
<svg version="1.0" xmlns="http://www.w3.org/2000/svg"
 width="90.000000pt" height="90.000000pt" viewBox="0 0 90.000000 90.000000"
 preserveAspectRatio="xMidYMid meet">
<metadata>
Created by potrace 1.14, written by Peter Selinger 2001-2017
</metadata>
<g transform="translate(0.000000,90.000000) scale(0.100000,-0.100000)"
fill="#000000" stroke="none">
<path d="M261 734 c-18 -14 -35 -42 -41 -65 -13 -46 -17 -48 -30 -14 -5 14
-17 28 -26 32 -42 16 -68 -94 -37 -154 26 -50 20 -70 -13 -48 -14 9 -29 13
-34 10 -13 -8 -13 -45 1 -84 12 -35 34 -43 25 -8 -3 12 -9 33 -12 46 -6 21 -5
22 15 12 26 -14 47 -46 57 -85 6 -27 6 -28 -16 -16 -38 20 -35 1 6 -37 l39
-37 -37 -9 c-21 -5 -38 -12 -38 -17 0 -4 12 -19 26 -34 29 -28 83 -47 113 -39
24 6 81 -23 81 -42 0 -18 -7 -16 100 -19 95 -3 110 0 110 20 0 20 49 42 98 42
43 1 85 21 109 51 19 24 16 30 -22 37 -29 5 -33 9 -25 23 5 10 25 28 44 41 39
27 66 76 66 120 0 37 -13 45 -44 25 -30 -20 -39 -3 -19 37 23 45 26 90 8 131
-19 46 -43 46 -64 2 l-14 -30 -15 43 c-8 24 -20 42 -28 42 -12 0 -12 -4 -4
-21 21 -38 4 -45 -28 -10 -37 38 -41 56 -12 48 24 -6 28 18 4 27 -32 12 -44 6
-44 -23 0 -35 40 -86 84 -106 30 -14 17 -14 -32 0 -35 10 -38 -19 -8 -65 14
-22 31 -40 37 -40 8 0 8 -4 2 -12 -16 -21 -15 -85 1 -115 13 -27 13 -30 -5
-42 -24 -14 -51 -74 -48 -105 2 -34 0 -44 -13 -49 -13 -4 -16 15 -18 84 0 14
11 47 24 74 l23 49 -37 51 c-41 57 -81 145 -100 223 -6 28 -17 52 -24 52 -6 0
-18 -21 -25 -47 -26 -98 -72 -196 -114 -247 l-24 -30 23 -51 c13 -29 24 -63
23 -76 -1 -83 -2 -87 -15 -82 -9 3 -14 21 -14 47 0 43 -29 102 -55 112 -13 5
-13 10 1 36 10 19 14 47 12 77 -3 38 1 53 24 85 44 61 32 88 -28 67 -24 -9
-26 -9 -9 2 49 30 85 75 85 106 0 40 -26 42 -69 5z m49 -12 c0 -14 -31 -52
-51 -62 -29 -16 -25 15 6 45 24 25 45 32 45 17z m-135 -132 c0 -52 -9 -70 -26
-53 -13 13 -16 94 -4 112 14 23 30 -8 30 -59z m576 43 c0 -10 2 -25 4 -34 1
-8 -4 -31 -12 -50 -14 -31 -16 -32 -23 -14 -10 24 -12 77 -4 99 8 22 34 20 35
-1z m-230 -151 c13 -20 25 -39 28 -42 30 -27 32 -39 13 -77 -11 -21 -23 -53
-27 -70 -6 -31 -9 -33 -51 -33 -24 0 -44 -4 -44 -10 0 -10 6 -11 67 -14 18 0
33 -5 33 -11 0 -6 -38 -10 -95 -10 -57 0 -95 4 -95 10 0 10 5 11 43 14 27 2
20 21 -8 21 -14 0 -25 6 -25 13 0 6 -11 38 -25 70 l-24 59 34 47 c19 26 44 73
56 104 12 32 24 55 27 52 3 -3 5 -39 5 -80 -1 -54 -5 -79 -17 -90 -40 -40 0
-99 50 -76 28 12 32 51 8 75 -11 11 -16 35 -16 79 0 113 1 116 22 59 10 -29
29 -69 41 -90z m-241 109 c0 -5 -14 -23 -32 -40 -34 -33 -64 -42 -54 -15 3 9
6 20 6 24 0 11 49 39 68 40 6 0 12 -4 12 -9z m380 -6 c17 -9 30 -20 30 -24 0
-5 3 -16 6 -25 9 -23 -17 -20 -47 7 -28 24 -44 57 -28 57 5 0 23 -7 39 -15z
m-470 -115 c-12 -16 -23 -30 -25 -30 -7 0 9 46 19 52 24 16 26 7 6 -22z m530
-3 c0 -21 0 -21 -20 1 -11 12 -20 23 -20 26 0 2 9 2 20 -1 12 -3 20 -14 20
-26z m-490 -51 c-6 -19 -18 -40 -26 -46 -11 -10 -14 -8 -15 11 -2 40 2 53 24
77 18 20 23 21 25 8 2 -9 -2 -32 -8 -50z m472 6 c3 -10 1 -28 -2 -42 l-6 -25
-22 35 c-12 19 -22 48 -22 64 l0 29 24 -22 c13 -13 26 -30 28 -39z m85 -4
c-14 -33 -55 -73 -65 -63 -9 9 9 55 34 85 34 39 51 27 31 -22z m-326 -32 c-14
-16 -41 -11 -41 8 0 7 5 17 12 24 19 19 46 -11 29 -32z m-241 -61 c0 -8 -4
-15 -10 -15 -5 0 -10 7 -10 15 0 8 5 15 10 15 6 0 10 -7 10 -15z m470 -11 c0
-8 -4 -12 -10 -9 -5 3 -10 13 -10 21 0 8 5 12 10 9 6 -3 10 -13 10 -21z m-414
-49 c2 -14 1 -25 -4 -25 -18 0 -32 26 -32 59 0 35 0 35 16 13 8 -12 17 -34 20
-47z m363 -11 c-23 -28 -32 2 -12 42 l18 39 3 -33 c2 -18 -2 -40 -9 -48z
m-400 -21 l26 -18 -28 -3 c-29 -4 -77 21 -77 38 0 15 47 4 79 -17z m491 17 c0
-18 -49 -41 -77 -38 l-28 3 32 20 c33 22 73 30 73 15z m-200 -79 c0 -16 -9
-20 -52 -23 -87 -5 -118 1 -118 23 0 17 8 19 85 19 77 0 85 -2 85 -19z"/>
</g>
</svg>
